<?xml version="1.0" encoding="UTF-8"?>
<svg width="33px" height="33px" viewBox="0 0 33 33" version="1.1" xmlns="http://www.w3.org/2000/svg" xmlns:xlink="http://www.w3.org/1999/xlink">
    <!-- Generator: Sketch 59.1 (86144) - https://sketch.com -->
    <title>Group 4</title>
    <desc>Created with Sketch.</desc>
    <g id="Login" stroke="none" stroke-width="1" fill="none" fill-rule="evenodd">
        <g id="Profile" transform="translate(-266.000000, -196.000000)">
            <g id="Group-2" transform="translate(136.000000, 45.000000)">
                <g id="Group-4" transform="translate(130.000000, 151.000000)">
                    <circle id="Oval" fill="#BD10E0" opacity="0.187360491" cx="16.5" cy="16.5" r="16.5"></circle>
                    <g id="Group" transform="translate(4.000000, 4.000000)">
                        <circle id="Oval" fill="#BD10E0" cx="12.5" cy="12.5" r="12.5"></circle>
                        <path d="M17.8967209,6.58409055 C17.1178643,5.80530315 15.8551438,5.80530315 15.0762872,6.58409055 L7.16965535,14.4900207 C7.11546952,14.5442017 7.07634489,14.6113655 7.05591702,14.685107 L6.01617211,18.4384851 C5.97341202,18.5923731 6.01686453,18.7571665 6.12973732,18.8702023 C6.24278317,18.9830651 6.40759123,19.0265138 6.56149286,18.9839306 L10.3152041,17.9441048 C10.3889522,17.9236787 10.4561219,17.8845576 10.5103077,17.8303766 L18.4167664,9.92427333 C19.1944112,9.14496661 19.1944112,7.88339675 18.4167664,7.10408998 L17.8967209,6.58409055 Z M8.13530593,14.778063 L14.6062726,8.30749746 L16.6932066,10.3942462 L10.2220667,16.8648117 L8.13530593,14.778063 Z M7.7184385,15.6144935 L9.38573513,17.2818153 L7.07946103,17.920736 L7.7184385,15.6144935 Z M17.7900804,9.29764286 L17.3200658,9.76761572 L15.2329588,7.68069389 L15.7031464,7.21072103 C16.1357676,6.77813826 16.8372405,6.77813826 17.2698617,7.21072103 L17.7900804,7.73072046 C18.222009,8.16382254 18.222009,8.86471391 17.7900804,9.29764286 L17.7900804,9.29764286 Z" id="Shape" fill="#FFFFFF" fill-rule="nonzero"></path>
                    </g>
                </g>
            </g>
        </g>
    </g>
</svg>